<svg width="31" height="32" viewBox="0 0 31 32" fill="none" xmlns="http://www.w3.org/2000/svg">
<path d="M27.6512 26.3369L21.9543 20.4562C23.3258 18.5715 24.0662 16.2773 24.0637 13.92C24.0637 7.89875 19.3181 3 13.485 3C7.65191 3 2.90625 7.89875 2.90625 13.92C2.90625 19.9412 7.65191 24.84 13.485 24.84C15.7686 24.8426 17.9911 24.0783 19.817 22.6625L25.5138 28.5431C25.8022 28.8092 26.1783 28.9513 26.565 28.9401C26.9516 28.9289 27.3195 28.7654 27.593 28.4831C27.8665 28.2007 28.0249 27.821 28.0357 27.4219C28.0465 27.0228 27.9089 26.6346 27.6512 26.3369ZM5.92875 13.92C5.92875 12.3773 6.37192 10.8693 7.20221 9.58655C8.0325 8.30385 9.21262 7.3041 10.5933 6.71374C11.9741 6.12338 13.4934 5.96891 14.9592 6.26988C16.4249 6.57084 17.7713 7.31372 18.8281 8.40457C19.8848 9.49542 20.6045 10.8852 20.8961 12.3983C21.1876 13.9113 21.038 15.4797 20.4661 16.9049C19.8941 18.3302 18.9256 19.5484 17.683 20.4055C16.4404 21.2625 14.9795 21.72 13.485 21.72C11.4817 21.7175 9.56113 20.8949 8.14458 19.4327C6.72803 17.9704 5.93115 15.9879 5.92875 13.92Z" fill="#006AFF"/>
</svg>
